<svg width="1200" height="630" viewBox="0 0 1200 630" fill="none" xmlns="http://www.w3.org/2000/svg">
  <defs>
    <linearGradient id="bg" x1="80" y1="40" x2="1120" y2="590" gradientUnits="userSpaceOnUse">
      <stop stop-color="#0F172A"/>
      <stop offset="1" stop-color="#020617"/>
    </linearGradient>
    <linearGradient id="accent" x1="184" y1="126" x2="873" y2="504" gradientUnits="userSpaceOnUse">
      <stop stop-color="#14B8A6"/>
      <stop offset="1" stop-color="#38BDF8"/>
    </linearGradient>
    <radialGradient id="glowA" cx="0" cy="0" r="1" gradientUnits="userSpaceOnUse" gradientTransform="translate(935 168) rotate(132.04) scale(298.988 335.627)">
      <stop stop-color="#38BDF8" stop-opacity="0.32"/>
      <stop offset="1" stop-color="#38BDF8" stop-opacity="0"/>
    </radialGradient>
    <radialGradient id="glowB" cx="0" cy="0" r="1" gradientUnits="userSpaceOnUse" gradientTransform="translate(291 485) rotate(-31.145) scale(310.923 250.11)">
      <stop stop-color="#14B8A6" stop-opacity="0.24"/>
      <stop offset="1" stop-color="#14B8A6" stop-opacity="0"/>
    </radialGradient>
  </defs>

  <rect width="1200" height="630" rx="32" fill="url(#bg)"/>
  <rect x="32" y="32" width="1136" height="566" rx="28" stroke="#1E293B" stroke-width="2"/>
  <ellipse cx="935" cy="168" rx="316" ry="246" fill="url(#glowA)"/>
  <ellipse cx="291" cy="485" rx="304" ry="220" fill="url(#glowB)"/>

  <g opacity="0.28">
    <path d="M774 114H1088" stroke="#334155" stroke-width="2"/>
    <path d="M714 170H1088" stroke="#334155" stroke-width="2"/>
    <path d="M654 226H1088" stroke="#334155" stroke-width="2"/>
    <path d="M594 282H1088" stroke="#334155" stroke-width="2"/>
    <path d="M534 338H1088" stroke="#334155" stroke-width="2"/>
    <path d="M474 394H1088" stroke="#334155" stroke-width="2"/>
    <path d="M414 450H1088" stroke="#334155" stroke-width="2"/>
    <path d="M354 506H1088" stroke="#334155" stroke-width="2"/>
  </g>

  <rect x="96" y="104" width="110" height="110" rx="24" fill="url(#accent)"/>
  <path d="M151 129L184 141V172C184 198 151 215 151 215C151 215 118 198 118 172V141L151 129Z" fill="#F8FAFC"/>

  <text x="96" y="290" fill="#F8FAFC" font-family="Plus Jakarta Sans, Arial, sans-serif" font-size="68" font-weight="700">
    Neuwerk
  </text>
  <text x="96" y="356" fill="#CBD5E1" font-family="Plus Jakarta Sans, Arial, sans-serif" font-size="28" font-weight="500">
    DNS-aware egress control outside the compromised node
  </text>

  <rect x="96" y="414" width="446" height="74" rx="20" fill="#0F172A" stroke="#1E293B" stroke-width="2"/>
  <text x="128" y="458" fill="#E2E8F0" font-family="JetBrains Mono, monospace" font-size="24">
    allow api.example.com
  </text>
  <text x="128" y="516" fill="#94A3B8" font-family="Plus Jakarta Sans, Arial, sans-serif" font-size="22">
    audit first, enforce later
  </text>

  <rect x="730" y="360" width="338" height="150" rx="24" fill="#0F172A" stroke="#1E293B" stroke-width="2"/>
  <circle cx="778" cy="412" r="10" fill="#14B8A6"/>
  <text x="802" y="420" fill="#E2E8F0" font-family="JetBrains Mono, monospace" font-size="22">
    DNS allowlist
  </text>
  <circle cx="778" cy="458" r="10" fill="#38BDF8"/>
  <text x="802" y="466" fill="#E2E8F0" font-family="JetBrains Mono, monospace" font-size="22">
    TLS metadata
  </text>
</svg>
